<!--?xml version="1.0" standalone="no"?-->
              <svg id="sw-js-blob-svg" viewBox="0 0 100 100" xmlns="http://www.w3.org/2000/svg" version="1.1">
                    <defs> 
                        <linearGradient id="sw-gradient" x1="0" x2="1" y1="1" y2="0">
                            <stop id="stop1" stop-color="rgba(216, 93, 40, 1)" offset="0%"></stop>
                            <stop id="stop2" stop-color="rgba(239, 131, 84, 1)" offset="100%"></stop>
                        </linearGradient>
                    </defs>
                <path fill="url(#sw-gradient)" d="M26.5,-33.6C32.4,-26.7,33.8,-16.5,33.3,-7.6C32.7,1.2,30.1,8.5,26.2,14.9C22.3,21.2,16.9,26.5,10.1,29.9C3.3,33.4,-5,34.9,-12.2,32.7C-19.5,30.4,-25.7,24.4,-30.9,17.1C-36,9.7,-40.1,1,-38.5,-6.6C-36.9,-14.1,-29.7,-20.4,-22.3,-27.1C-14.9,-33.7,-7.5,-40.7,1.4,-42.4C10.3,-44.1,20.7,-40.5,26.5,-33.6Z" width="100%" height="100%" transform="translate(50 50)" stroke-width="0" style="transition: all 0.3s ease 0s;"></path>
              </svg>